<svg width="179" height="29" viewBox="0 0 179 29" fill="none" xmlns="http://www.w3.org/2000/svg">
<path d="M2.3602 15.2521H1.2052V22.383H2.3602V15.2521Z" fill="white"/>
<path d="M9.23286 14.2994H12.0392C13.8814 14.2994 14.8169 13.4882 14.8169 11.8753V7.89478H2.62744V14.3371H3.78244V9.0361H8.08739V10.5358H4.65107V11.6772H8.08739V13.1769H4.58425V14.3088H8.08739V15.2615H3.18107V16.4028H8.08739V18.9307H3.80152V20.0721H11.7528C13.6524 20.0721 13.8051 18.7987 13.8051 18.4119V17.4027H12.6501V18.3365C12.6501 18.61 12.5451 18.9402 12.0678 18.9402H9.2424V16.4123H15.0746V18.7421C15.0746 20.4776 13.576 21.2605 12.1824 21.2605H10.5501V22.4018H12.1824C14.5305 22.4018 16.2296 20.921 16.2296 18.8741V15.2521H9.25194V14.2994H9.23286ZM9.23286 9.0361H13.6619V10.5358H9.23286V9.0361ZM9.23286 11.6677H13.6619V11.9507C13.6619 12.7713 13.1274 13.1675 12.0392 13.1675H9.23286V11.6677Z" fill="white"/>
<path d="M13.6715 5.85744V3.97095H12.5165V5.85744H4.93748V3.97095H3.7825V5.85744H0.89978V6.99875H16.5542V5.85744H13.6715Z" fill="white"/>
<path d="M34.4904 5.85744H28.6867V3.97095H27.5318V5.85744H21.7282C20.9932 5.85744 19.8955 5.85744 19.8955 7.39491V8.78149H21.0505V7.35719C21.0505 7.35719 21.0505 7.1874 21.1555 7.08365C21.2223 7.01762 21.3082 6.98933 21.4228 6.98933H34.7768C35.0439 6.98933 35.1871 7.10252 35.1871 7.3289V8.79093H36.3422V7.40435C36.3327 5.85744 35.2254 5.85744 34.4904 5.85744Z" fill="white"/>
<path d="M21.241 18.8082H28.3619V19.7797C28.3619 20.7041 27.7891 21.2512 26.8441 21.2512H24.706V22.3925H26.6628C28.4383 22.3925 29.5073 21.3926 29.5073 19.7137V18.8176H35.0341V17.6763H21.241V18.8082Z" fill="white"/>
<path d="M28.6865 7.81946H27.5314V9.39467H28.6865V7.81946Z" fill="white"/>
<path d="M25.4886 7.81946V9.32864C25.4886 10.4228 26.3096 11.1585 27.5218 11.1585H30.7864V10.3945V10.0172V7.81946H29.6313V10.0172H27.5218C26.9204 10.0172 26.6438 9.70593 26.6438 9.04567V7.81946H25.4886Z" fill="white"/>
<path d="M24.7346 9.32864V7.81946H23.5795V9.25317C23.5795 9.25317 23.5224 10.0172 22.8447 10.0172H21.3269V11.1585H22.692C23.9137 11.1585 24.7346 10.4228 24.7346 9.32864Z" fill="white"/>
<path d="M31.55 7.81946V9.32864C31.55 10.4228 32.3614 11.1585 33.5832 11.1585H34.9578V10.0172H33.44C32.7623 10.0172 32.7049 9.26261 32.7049 9.26261V7.81946H31.55Z" fill="white"/>
<path d="M34.9385 13.6769C34.9385 12.5356 34.3659 11.9508 33.2203 11.9508H29.3451H24.286H23.045C21.9091 11.9508 21.3269 12.5356 21.3269 13.6769V15.6295H19.876V16.7708H36.3322V15.6295H34.9483V13.6769H34.9385ZM33.7931 13.7618V15.6295H30.7959V13.1016H33.2203C33.7168 13.1016 33.7931 13.4128 33.7931 13.7618ZM29.6505 13.1016V15.6295H26.6533V13.1016H29.3546H29.6505ZM22.4914 13.7618C22.4914 13.4223 22.5582 13.1016 23.0545 13.1016H24.2955H25.4887V15.6295H22.4914V13.7618Z" fill="white"/>
<path d="M68.9106 21.138V12.5167C68.9106 10.0832 68.0897 7.86653 65.1974 7.86653C62.1333 7.86653 61.4556 9.94165 61.4556 12.4884V21.1474H58.506V12.5167C58.506 11.3377 58.506 10.3567 57.8571 9.31911C57.1794 8.28156 56.1579 7.86653 54.9362 7.86653C51.9007 7.86653 51.0512 9.88506 51.0512 12.4884V21.1474H48.1016V5.62161H50.8221V7.30058H50.8792C52.1871 5.7914 53.3134 5.19714 55.3848 5.19714C57.2269 5.19714 59.4416 6.06493 60.2625 7.8005C61.4842 5.89515 63.1548 5.19714 65.4455 5.19714C69.6169 5.19714 71.8506 7.77221 71.8506 11.781V21.138H68.9106Z" fill="white"/>
<path d="M104.133 21.138V12.7054C104.133 10.0737 103.341 7.85709 100.219 7.85709C97.3273 7.85709 96.0767 10.0737 96.0767 12.6771V21.138H93.1273V5.62161H95.8762V7.27229H95.9335C97.0694 5.7914 98.7112 5.19714 100.525 5.19714C102.768 5.19714 104.858 6.06493 106.08 7.97028C106.844 9.14933 107.073 10.5736 107.073 11.9508V21.138H104.133Z" fill="white"/>
<path d="M120.599 21.138V12.7054C120.599 10.0737 119.807 7.85709 116.685 7.85709C113.793 7.85709 112.543 10.0737 112.543 12.6771V21.138H109.593V5.62161H112.342V7.27229H112.399C113.535 5.7914 115.177 5.19714 116.991 5.19714C119.234 5.19714 121.324 6.06493 122.546 7.97028C123.31 9.14933 123.539 10.5736 123.539 11.9508V21.138H120.599Z" fill="white"/>
<path d="M126.145 21.138V5.6217H129.094V21.138H126.145Z" fill="white"/>
<path d="M142.754 21.138V12.7054C142.754 10.0737 141.961 7.85709 138.84 7.85709C135.948 7.85709 134.697 10.0737 134.697 12.6771V21.138H131.748V5.62161H134.497V7.27229H134.554C135.69 5.7914 137.332 5.19714 139.145 5.19714C141.389 5.19714 143.479 6.06493 144.701 7.97028C145.464 9.14933 145.693 10.5736 145.693 11.9508V21.138H142.754Z" fill="white"/>
<path d="M177.318 14.4315C176.468 13.3279 174.902 12.4978 172.526 11.9036C172.144 11.8093 171.552 11.5923 171.266 11.4697C169.634 10.734 169.624 10.102 169.757 9.33796C169.815 9.0267 170.101 8.69657 170.158 8.64939C170.588 8.33813 170.846 8.22494 171.189 8.11175C171.542 8.008 171.886 7.97969 172.363 7.97969H172.688C173.06 7.97969 173.996 8.11175 175.132 8.61167C175.628 8.84748 176.115 9.16818 176.583 9.5549L176.917 9.85675V6.76292L176.84 6.69689C175.657 5.76309 174.148 5.23486 172.688 5.23486H172.392C171.762 5.23486 171.065 5.26315 170.321 5.49896C169.614 5.71591 169.051 5.98947 168.412 6.45164C168.087 6.69689 167.171 7.58353 166.922 8.82861C166.474 11.1301 167.486 12.7997 170.025 13.9316C170.435 14.1202 171.208 14.4032 171.781 14.5447C174.072 15.12 174.779 15.7803 174.979 16.0444C175.198 16.3368 175.256 16.5821 175.17 17.0254C175.008 17.8649 173.929 18.7421 172.258 18.7421C170.703 18.7421 169.757 18.3176 169.099 17.9403C168.717 17.7234 167.906 17.148 167.352 16.5726L166.999 16.2048V19.5344L167.056 19.591C167.343 19.8457 167.591 20.0532 167.82 20.2041C168.765 20.8267 169.967 21.4869 172.258 21.4869C175.513 21.4869 177.604 19.4967 177.995 17.5347C178.1 17.1103 178.358 15.7897 177.318 14.4315Z" fill="white"/>
<path d="M155.965 27.2505C152.538 27.2505 149.617 25.4866 148.223 22.3455H151.507C152.585 23.8548 154.084 24.5905 155.984 24.5905C159.554 24.5905 161.51 22.6569 161.51 19.1007H161.453C160.203 20.808 158.112 21.5343 156.041 21.5343C151.535 21.5343 147.651 17.8085 147.651 13.3281C147.651 12.1207 147.965 10.9228 148.5 9.85696C149.941 6.88575 152.748 5.20679 156.098 5.20679C158.026 5.20679 160.212 5.96137 161.51 7.42339V5.63124H164.46V19.0442C164.46 24.2791 161.176 27.2505 155.965 27.2505ZM158.112 8.28175C157.463 8.02708 156.747 7.8573 156.041 7.8573C152.977 7.8573 150.6 10.3757 150.6 13.3753C150.6 16.3182 153.005 18.8649 156.012 18.8649C158.313 18.8649 160.098 17.601 161.004 15.5636C161.32 14.8939 161.51 14.1393 161.51 13.4035C161.52 11.0266 160.384 9.14954 158.112 8.28175Z" fill="white"/>
<path d="M127.567 0.386719C126.546 0.386719 125.725 1.19791 125.725 2.20718C125.725 3.21645 126.546 4.02765 127.567 4.02765C128.588 4.02765 129.419 3.20701 129.419 2.20718C129.419 1.20734 128.588 0.386719 127.567 0.386719Z" fill="white"/>
<path d="M87.6196 5.6218V7.81012H87.5622C86.3978 6.04627 84.3264 5.20679 82.236 5.20679C77.4727 5.20679 73.9027 8.7345 73.9027 13.4413C73.9027 18.1198 77.5301 21.5343 82.236 21.5343C83.7631 21.5343 85.2427 21.0721 86.369 20.1383V16.969C85.3764 18.1386 83.8873 18.8744 82.2074 18.8744C79.2004 18.8744 76.8524 16.3276 76.8524 13.413C76.8524 10.3852 79.1241 7.86671 82.236 7.86671C85.4432 7.86671 87.6769 10.3003 87.6769 13.413C87.6769 13.4507 87.6769 13.479 87.6769 13.5167V21.1476H90.569V5.6218H87.6196Z" fill="white"/>
</svg>
