<svg width="55" height="55" viewBox="0 0 55 55" fill="none" xmlns="http://www.w3.org/2000/svg">
<path d="M35.9551 32.0938C43.0371 32.0938 48.875 37.9316 48.875 45.0137V47.4062C48.875 49.9902 46.7695 52 44.2812 52H10.5938C8.00977 52 6 49.9902 6 47.4062V45.0137C6 37.9316 11.7422 32.0938 18.8242 32.0938C21.5996 32.0938 22.8438 33.625 27.4375 33.625C31.9355 33.625 33.1797 32.0938 35.9551 32.0938ZM44.2812 47.4062V45.0137C44.2812 40.4199 40.5488 36.6875 35.9551 36.6875C34.5195 36.6875 32.3184 38.2188 27.4375 38.2188C22.4609 38.2188 20.2598 36.6875 18.8242 36.6875C14.2305 36.6875 10.5938 40.4199 10.5938 45.0137V47.4062H44.2812ZM27.4375 30.5625C19.7813 30.5625 13.6563 24.4375 13.6563 16.7813C13.6563 9.2207 19.7813 3 27.4375 3C34.998 3 41.2188 9.2207 41.2188 16.7813C41.2188 24.4375 34.998 30.5625 27.4375 30.5625ZM27.4375 7.59375C22.3652 7.59375 18.25 11.8047 18.25 16.7813C18.25 21.8535 22.3652 25.9688 27.4375 25.9688C32.4141 25.9688 36.625 21.8535 36.625 16.7813C36.625 11.8047 32.4141 7.59375 27.4375 7.59375Z" fill="#FF8300"/>
</svg>
