<svg width="55" height="55" viewBox="0 0 55 55" fill="none" xmlns="http://www.w3.org/2000/svg">
<path d="M29.875 41.875C29.375 42.375 28.75 42.625 28 42.625C27.25 42.625 26.625 42.375 26.125 41.875C25.625 41.375 25.375 40.75 25.375 40V34C25.375 33.25 25.625 32.625 26.125 32.125C26.625 31.625 27.25 31.375 28 31.375C28.75 31.375 29.375 31.625 29.875 32.125C30.375 32.625 30.625 33.25 30.625 34V40C30.625 40.75 30.375 41.375 29.875 41.875ZM49 26.5V47.5C49 48.75 48.5625 49.8125 47.6875 50.6875C46.8125 51.5625 45.75 52 44.5 52H11.5C10.25 52 9.1875 51.5625 8.3125 50.6875C7.4375 49.8125 7 48.75 7 47.5V26.5C7 25.25 7.4375 24.1875 8.3125 23.3125C9.1875 22.4375 10.25 22 11.5 22H14.5V17.5C14.5 13.75 15.8125 10.5625 18.4375 7.9375C21.125 5.3125 24.3125 4 28 4C31.75 4 34.9375 5.34375 37.5625 8.03125C40.1875 10.7188 41.5 13.9062 41.5 17.5938V22H44.5C45.75 22 46.8125 22.4375 47.6875 23.3125C48.5625 24.1875 49 25.25 49 26.5ZM19 22H37V17.5C37 15 36.125 12.875 34.375 11.125C32.625 9.375 30.5 8.5 28 8.5C25.5 8.5 23.375 9.375 21.625 11.125C19.875 12.875 19 15 19 17.5V22ZM44.5 26.5H11.5V47.5H44.5V26.5Z" fill="#FF8300"/>
</svg>
