<svg width="55" height="55" viewBox="0 0 55 55" fill="none" xmlns="http://www.w3.org/2000/svg">
<path d="M48.6316 19.8655L40.4444 28.0526C40.0078 28.5439 39.5439 28.5439 39.0526 28.0526L37.4971 26.4971C37.0058 26.0058 37.0058 25.5419 37.4971 25.1053L41.6725 21.1754H8.02339C7.36842 21.1754 7.04094 20.848 7.04094 20.193V18.2281C7.04094 17.5731 7.36842 17.2456 8.02339 17.2456H41.6725L37.4971 13.3158C37.0058 12.8791 37.0058 12.4152 37.4971 11.924L39.0526 10.3684C39.5439 9.87719 40.0078 9.87719 40.4444 10.3684L48.6316 18.5556C49.1228 18.9922 49.1228 19.4289 48.6316 19.8655ZM7.36842 35.5848C6.87719 35.1481 6.87719 34.7115 7.36842 34.2749L15.5556 26.0877C15.9922 25.5965 16.4561 25.5965 16.9474 26.0877L18.5029 27.6433C18.9942 28.1345 18.9942 28.5984 18.5029 29.0351L14.3275 32.9649H47.9766C48.6316 32.9649 48.9591 33.2924 48.9591 33.9474V35.9123C48.9591 36.5673 48.6316 36.8947 47.9766 36.8947H14.3275L18.5029 40.8246C18.9942 41.2612 18.9942 41.7251 18.5029 42.2164L16.9474 43.7719C16.4561 44.2632 15.9922 44.2632 15.5556 43.7719L7.36842 35.5848Z" fill="#FF8300"/>
</svg>
