<svg width="55" height="55" viewBox="0 0 55 55" fill="none" xmlns="http://www.w3.org/2000/svg">
<path d="M45.4271 11C47.3958 11 49 12.6042 49 14.5V40.1667C49 42.1354 47.3958 43.6667 45.4271 43.6667H10.5C8.53125 43.6667 7 42.1354 7 40.1667V14.5C7 12.6042 8.53125 11 10.5 11H45.4271ZM10.9375 14.5C10.6458 14.5 10.5 14.7188 10.5 14.9375V18H45.4271V14.9375C45.4271 14.7188 45.2812 14.5 44.9896 14.5H10.9375ZM44.9896 40.1667C45.2812 40.1667 45.4271 40.0208 45.4271 39.7292V27.3333H10.5V39.7292C10.5 40.0208 10.6458 40.1667 10.9375 40.1667H44.9896ZM21 32.875V35.7917C21 36.3021 20.5625 36.6667 20.125 36.6667H14.875C14.3646 36.6667 14 36.3021 14 35.7917V32.875C14 32.4375 14.3646 32 14.875 32H20.125C20.5625 32 21 32.4375 21 32.875ZM35 32.875V35.7917C35 36.3021 34.5625 36.6667 34.125 36.6667H24.2083C23.6979 36.6667 23.3333 36.3021 23.3333 35.7917V32.875C23.3333 32.4375 23.6979 32 24.2083 32H34.125C34.5625 32 35 32.4375 35 32.875Z" fill="#FF8300"/>
</svg>
