<svg width="55" height="55" viewBox="0 0 55 55" fill="none" xmlns="http://www.w3.org/2000/svg">
<path d="M14.8673 12H21.7512C22.4068 12 22.7346 12.3278 22.7346 12.9834V14.9502C22.7346 15.6059 22.4068 15.9337 21.7512 15.9337H14.8673C13.7746 15.9337 12.8459 16.3161 12.081 17.081C11.3161 17.8459 10.9337 18.7746 10.9337 19.8673V35.602C10.9337 36.6946 11.3161 37.6234 12.081 38.3883C12.8459 39.1532 13.7746 39.5356 14.8673 39.5356H21.7512C22.4068 39.5356 22.7346 39.8634 22.7346 40.519V42.4859C22.7346 43.1415 22.4068 43.4693 21.7512 43.4693H14.8673C12.682 43.4693 10.8244 42.7044 9.29463 41.1746C7.76488 39.6449 7 37.7873 7 35.602V19.8673C7 17.682 7.76488 15.8244 9.29463 14.2946C10.8244 12.7649 12.682 12 14.8673 12ZM33.798 13.639C34.2898 13.1473 34.7541 13.12 35.1912 13.5571L48.6312 26.9971C49.1229 27.4888 49.1229 27.9532 48.6312 28.3902L35.1912 41.8302C34.7541 42.322 34.2898 42.322 33.798 41.8302L32.241 40.2732C31.7493 39.7815 31.7493 39.3171 32.241 38.88L41.5015 29.8654H21.0956C20.44 29.8654 20.1122 29.5376 20.1122 28.882V26.5873C20.1122 25.9317 20.44 25.6039 21.0956 25.6039H41.5015L32.241 16.5893C31.7493 16.1522 31.7493 15.6878 32.241 15.1961L33.798 13.639Z" fill="#FF8300"/>
</svg>
