<svg width="43" height="48" viewBox="0 0 43 48" fill="none" xmlns="http://www.w3.org/2000/svg">
<path d="M42.1562 34.0312C42.7188 34.5938 43 35.3438 43 36C42.9062 37.5938 41.7812 39 39.9062 39H4C2.125 39 1 37.5938 1 36C0.90625 35.3438 1.1875 34.5938 1.75 34.0312C3.53125 32.0625 7 29.1562 7 19.5C7 12.2812 12.0625 6.46875 19 4.96875V3C19 1.40625 20.3125 0 22 0C23.5938 0 24.9062 1.40625 24.9062 3V4.96875C31.8438 6.46875 36.9062 12.2812 36.9062 19.5C36.9062 29.1562 40.375 32.0625 42.1562 34.0312ZM7.28125 34.5H36.625C34.6562 31.9688 32.5 27.5625 32.4062 19.5938C32.4062 19.5938 32.5 19.5938 32.5 19.5C32.5 13.7812 27.7188 9 22 9C16.1875 9 11.5 13.7812 11.5 19.5C11.5 19.5938 11.5 19.5938 11.5 19.5938C11.4062 27.5625 9.25 31.9688 7.28125 34.5ZM22 48C18.625 48 16 45.375 16 42H27.9062C27.9062 45.375 25.2812 48 22 48Z" fill="#FF8300"/>
</svg>
