<svg width="55" height="55" viewBox="0 0 55 55" fill="none" xmlns="http://www.w3.org/2000/svg">
<path d="M43.2682 11.9961C44.362 13.1445 45 14.6758 45 16.3027V45.875C45 49.3203 42.3568 52 39.1667 52H15.8333C12.5521 52 10 49.3203 10 45.875V9.125C10 5.77539 12.5521 3 15.8333 3H32.3307C33.8802 3 35.3385 3.66992 36.4323 4.81836L43.2682 11.9961ZM40.625 45.875H40.5339V18.3125H33.3333C31.6927 18.3125 30.4167 16.9727 30.4167 15.25V7.68945H15.8333C15.013 7.68945 14.375 8.35938 14.375 9.2207V45.875C14.375 46.7363 15.013 47.4062 15.8333 47.4062H39.1667C39.8958 47.4062 40.625 46.7363 40.625 45.875ZM18.75 29.7969C18.75 28.5527 19.6615 27.5 20.9375 27.5H34.0625C35.2474 27.5 36.25 28.5527 36.25 29.7969C36.25 31.1367 35.2474 32.0938 34.0625 32.0938H20.9375C19.6615 32.0938 18.75 31.1367 18.75 29.7969ZM34.0625 36.6875C35.2474 36.6875 36.25 37.7402 36.25 38.9844C36.25 40.3242 35.2474 41.2812 34.0625 41.2812H20.9375C19.6615 41.2812 18.75 40.3242 18.75 38.9844C18.75 37.7402 19.6615 36.6875 20.9375 36.6875H34.0625Z" fill="#FF8300"/>
</svg>
