<svg width="50" height="43" viewBox="0 0 50 43" fill="none" xmlns="http://www.w3.org/2000/svg">
<path d="M44.0312 4C46.2812 5.9375 47.7812 8.25 48.5312 10.9375C49.2812 13.5625 49.3125 16.0938 48.625 18.5312C47.9375 20.9688 46.75 23.0625 45.0625 24.8125L28.6562 41.5C27.6562 42.5 26.4688 43 25.0938 43C23.7188 43 22.5312 42.5 21.5312 41.5L5.125 24.8125C3.4375 23.0625 2.25 20.9688 1.5625 18.5312C0.875 16.0312 0.90625 13.4688 1.65625 10.8438C2.40625 8.21875 3.90625 5.9375 6.15625 4C8.84375 1.75 12 0.78125 15.625 1.09375C19.3125 1.34375 22.4688 2.78125 25.0938 5.40625C27.7188 2.78125 30.8438 1.34375 34.4688 1.09375C38.1562 0.78125 41.3438 1.75 44.0312 4ZM41.875 21.625C43.6875 19.75 44.5938 17.4688 44.5938 14.7812C44.5938 12.0313 43.4688 9.59375 41.2188 7.46875C39.3438 5.96875 37.1562 5.3125 34.6562 5.5C32.2188 5.6875 30.125 6.6875 28.375 8.5L25.0938 11.7812L21.8125 8.5C20.0625 6.6875 17.9375 5.6875 15.4375 5.5C13 5.3125 10.8438 5.96875 8.96875 7.46875C6.71875 9.59375 5.59375 12.0313 5.59375 14.7812C5.59375 17.4688 6.5 19.75 8.3125 21.625L24.8125 38.3125C25 38.5625 25.1875 38.5625 25.375 38.3125L41.875 21.625Z" fill="#FF8300"/>
</svg>
