<svg width="55" height="55" viewBox="0 0 55 55" fill="none" xmlns="http://www.w3.org/2000/svg">
<path d="M45.1802 25.3944C45.2384 26.4648 45.2384 27.5352 45.1802 28.6056L47.8837 30.1268C48.814 30.6901 49.1628 31.4507 48.9302 32.4085C47.8837 36.0141 45.9942 39.1408 43.2616 41.7887C42.5058 42.5211 41.6628 42.6338 40.7326 42.1268L38.0291 40.6056C37.0988 41.2254 36.1395 41.7606 35.1512 42.2113V45.2535C35.1512 46.3239 34.6279 47 33.5814 47.2817C29.8605 48.2394 26.1395 48.2394 22.4186 47.2817C22.0116 47.169 21.6337 46.9155 21.2849 46.5211C20.9942 46.1268 20.8488 45.7042 20.8488 45.2535V42.2113C19.8605 41.7606 18.9012 41.2254 17.9709 40.6056L15.2674 42.1268C14.3372 42.6338 13.4942 42.5211 12.7384 41.7887C10.0058 39.1408 8.11628 36.0141 7.06977 32.4085C6.83721 31.4507 7.18605 30.6901 8.11628 30.1268L10.8198 28.6056C10.8198 28.0986 10.8198 27.5634 10.8198 27C10.8198 26.4366 10.8198 25.9014 10.8198 25.3944L8.11628 23.8732C7.18605 23.3099 6.83721 22.5493 7.06977 21.5915C8.11628 17.9859 10.0058 14.8592 12.7384 12.2113C13.4942 11.4789 14.3372 11.3662 15.2674 11.8732L17.9709 13.3944C18.9012 12.7746 19.8605 12.2394 20.8488 11.7887V8.74648C20.8488 7.67606 21.3721 7 22.4186 6.71831C26.1395 5.76056 29.8605 5.76056 33.5814 6.71831C33.9884 6.83099 34.3372 7.08451 34.6279 7.47887C34.9767 7.87324 35.1512 8.29577 35.1512 8.74648V11.7887C36.1395 12.2394 37.0988 12.7746 38.0291 13.3944L40.7326 11.8732C41.6628 11.3662 42.5058 11.4789 43.2616 12.2113C45.9942 14.8592 47.8837 17.9859 48.9302 21.5915C49.1628 22.5493 48.814 23.3099 47.8837 23.8732L45.1802 25.3944ZM40.5581 30.7183C40.907 28.9718 41.0814 27.7324 41.0814 27C41.0814 26.2676 40.907 25.0282 40.5581 23.2817L44.3953 21.169C43.6977 19.3662 42.7093 17.7042 41.4302 16.1831L37.593 18.2958C36.6047 17.507 35.8488 16.9437 35.3256 16.6056C34.8023 16.2113 34.25 15.9014 33.6686 15.6761C33.0872 15.3944 32.186 15.0282 30.9651 14.5775V10.3521C29.9767 10.1831 28.9884 10.0986 28 10.0986C27.0116 10.0986 26.0233 10.1831 25.0349 10.3521V14.5775C23.3488 15.1972 22.157 15.7042 21.4593 16.0986C20.8198 16.4366 19.8023 17.169 18.407 18.2958L14.5698 16.1831C13.2907 17.7042 12.3023 19.3662 11.6047 21.169L15.4419 23.2817C15.093 25.0282 14.9186 26.2676 14.9186 27C14.9186 27.7324 15.093 28.9718 15.4419 30.7183L11.6047 32.831C12.3023 34.6338 13.2907 36.2958 14.5698 37.8169L18.407 35.7042C19.8023 36.831 20.8198 37.5915 21.4593 37.9859C22.157 38.3239 23.3488 38.8028 25.0349 39.4225V43.6479C26.0233 43.8169 27.0116 43.9014 28 43.9014C28.9884 43.9014 29.9767 43.8169 30.9651 43.6479V39.4225C32.186 38.9718 33.0872 38.6338 33.6686 38.4085C34.25 38.1268 34.8023 37.8169 35.3256 37.4789C35.8488 37.0845 36.6047 36.493 37.593 35.7042L41.4302 37.8169C42.7093 36.2958 43.6977 34.6338 44.3953 32.831L40.5581 30.7183ZM22.0698 21.2535C23.6977 19.6761 25.6744 18.8873 28 18.8873C30.3256 18.8873 32.3023 19.6761 33.9302 21.2535C35.5581 22.831 36.3721 24.7465 36.3721 27C36.3721 29.2535 35.5581 31.169 33.9302 32.7465C32.3023 34.3239 30.3256 35.1127 28 35.1127C25.6744 35.1127 23.6977 34.3239 22.0698 32.7465C20.4419 31.169 19.6279 29.2535 19.6279 27C19.6279 24.7465 20.4419 22.831 22.0698 21.2535ZM25.0349 29.8732C25.8488 30.662 26.8372 31.0563 28 31.0563C29.1628 31.0563 30.1512 30.662 30.9651 29.8732C31.7791 29.0845 32.186 28.1268 32.186 27C32.186 25.8732 31.7791 24.9155 30.9651 24.1268C30.1512 23.338 29.1628 22.9437 28 22.9437C26.8372 22.9437 25.8488 23.338 25.0349 24.1268C24.2209 24.9155 23.814 25.8732 23.814 27C23.814 28.1268 24.2209 29.0845 25.0349 29.8732Z" fill="#FF8300"/>
</svg>
