<svg width="55" height="55" viewBox="0 0 55 55" fill="none" xmlns="http://www.w3.org/2000/svg">
<path d="M47.7266 18.3125H45.8125V24.4375H47.7266C48.3008 24.4375 48.875 25.0117 48.875 25.5859V29.4141C48.875 30.084 48.3008 30.5625 47.7266 30.5625H45.8125V36.6875H47.7266C48.3008 36.6875 48.875 37.2617 48.875 37.8359V41.6641C48.875 42.334 48.3008 42.8125 47.7266 42.8125H45.8125V47.4062C45.8125 49.9902 43.707 52 41.2188 52H10.5938C8.00977 52 6 49.9902 6 47.4062V7.59375C6 5.10547 8.00977 3 10.5938 3H41.2188C43.707 3 45.8125 5.10547 45.8125 7.59375V12.1875H47.7266C48.3008 12.1875 48.875 12.7617 48.875 13.3359V17.1641C48.875 17.834 48.3008 18.3125 47.7266 18.3125ZM41.2188 47.4062V7.59375H10.5938V47.4062H41.2188ZM25.9062 27.5C22.4609 27.5 19.7813 24.8203 19.7813 21.375C19.7813 18.0254 22.4609 15.25 25.9062 15.25C29.2559 15.25 32.0313 18.0254 32.0313 21.375C32.0313 24.8203 29.2559 27.5 25.9062 27.5ZM17.293 39.75C16.1445 39.75 15.1875 38.9844 15.1875 37.9316V36.1133C15.1875 33.0508 18.0586 30.5625 21.5996 30.5625C22.6523 30.5625 23.3223 31.3281 25.9062 31.3281C28.3945 31.3281 29.1602 30.5625 30.1172 30.5625C33.6582 30.5625 36.625 33.0508 36.625 36.1133V37.9316C36.625 38.9844 35.668 39.75 34.4238 39.75H17.293Z" fill="#FF8300"/>
</svg>
