<svg width="55" height="55" viewBox="0 0 55 55" fill="none" xmlns="http://www.w3.org/2000/svg">
<path d="M48.4167 24.0833C47.5903 24.0833 46.8854 24.375 46.3021 24.9583C45.7674 25.4931 45.5 26.1736 45.5 27C45.5 27.8264 45.7674 28.5312 46.3021 29.1146C46.8854 29.6493 47.5903 29.9167 48.4167 29.9167H49V37.5C49 38.4722 48.6597 39.2986 47.9792 39.9792C47.2986 40.6597 46.4722 41 45.5 41H10.5C9.52778 41 8.70139 40.6597 8.02083 39.9792C7.34028 39.2986 7 38.4722 7 37.5V29.9167H7.58333C8.40972 29.9167 9.09028 29.6493 9.625 29.1146C10.2083 28.5312 10.5 27.8264 10.5 27C10.5 26.1736 10.2083 25.4931 9.625 24.9583C9.09028 24.375 8.40972 24.0833 7.58333 24.0833H7V16.5C7 15.5278 7.34028 14.7014 8.02083 14.0208C8.70139 13.3403 9.52778 13 10.5 13H45.5C46.4722 13 47.2986 13.3403 47.9792 14.0208C48.6597 14.7014 49 15.5278 49 16.5V24.0833H48.4167ZM45.5 21.3125V16.5H10.5V21.3125C11.5694 21.8472 12.4201 22.625 13.0521 23.6458C13.684 24.6667 14 25.7847 14 27C14 28.2153 13.684 29.3333 13.0521 30.3542C12.4201 31.375 11.5694 32.1528 10.5 32.6875V37.5H45.5V32.6875C44.4306 32.1528 43.5799 31.375 42.9479 30.3542C42.316 29.3333 42 28.2153 42 27C42 25.7847 42.316 24.6667 42.9479 23.6458C43.5799 22.625 44.4306 21.8472 45.5 21.3125Z" fill="#FF8300"/>
</svg>
